<svg width="24" height="24" viewBox="0 0 24 24" fill="none" xmlns="http://www.w3.org/2000/svg">
<path d="M12 13.25C12.6904 13.25 13.25 12.6904 13.25 12C13.25 11.3096 12.6904 10.75 12 10.75C11.3096 10.75 10.75 11.3096 10.75 12C10.75 12.6904 11.3096 13.25 12 13.25Z" stroke="black" stroke-linecap="round" stroke-linejoin="round"/>
<path d="M12 18.25C15.4518 18.25 18.25 15.4518 18.25 12C18.25 8.54822 15.4518 5.75 12 5.75C8.54822 5.75 5.75 8.54822 5.75 12C5.75 15.4518 8.54822 18.25 12 18.25Z" stroke="black" stroke-linecap="round" stroke-linejoin="round"/>
<path d="M16.8751 22.1375V22.15M20.8001 19.0125V19.025M22.9626 14.5V14.5125M22.9626 9.5V9.5125M20.8001 4.9875V5M16.8751 1.8625V1.875M12.0001 0.75V0.7625M7.1251 1.8625V1.875M3.2001 4.9875V5M1.0376 9.5V9.5125M1.0376 14.5V14.5125M3.2001 19.0125V19.025M7.1251 22.1375V22.15M12.0001 23.25V23.2625" stroke="black" stroke-linecap="round" stroke-linejoin="round"/>
</svg>
