<svg width="25" height="23" viewBox="0 0 25 23" fill="none" xmlns="http://www.w3.org/2000/svg">
<path d="M23.9565 11.3154L13.7682 1.13243L13.0853 0.449517C12.9297 0.294944 12.7193 0.208191 12.5 0.208191C12.2806 0.208191 12.0702 0.294944 11.9146 0.449517L1.04342 11.3154C0.88398 11.4743 0.757973 11.6634 0.672835 11.8717C0.587697 12.08 0.545154 12.3033 0.547717 12.5283C0.558264 13.4564 1.33082 14.1974 2.25895 14.1974H3.37955V22.7852H21.6204V14.1974H22.7647C23.2156 14.1974 23.6401 14.0207 23.9591 13.7017C24.1162 13.5451 24.2407 13.3589 24.3253 13.1538C24.41 12.9488 24.4531 12.729 24.4522 12.5072C24.4522 12.059 24.2755 11.6345 23.9565 11.3154ZM13.9765 20.8867H11.0234V15.5078H13.9765V20.8867ZM19.7219 12.2989V20.8867H15.664V14.875C15.664 14.2923 15.1921 13.8203 14.6093 13.8203H10.3906C9.80787 13.8203 9.3359 14.2923 9.3359 14.875V20.8867H5.27799V12.2989H2.74674L12.5026 2.55098L13.1117 3.16006L22.2558 12.2989H19.7219Z" fill="#232323"/>
</svg>
