<svg width="23" height="23" viewBox="0 0 23 23" fill="none" xmlns="http://www.w3.org/2000/svg">
<path d="M11.4999 1.08334C5.74679 1.08334 1.08325 5.74689 1.08325 11.5C1.08325 17.2531 5.74679 21.9167 11.4999 21.9167C17.253 21.9167 21.9166 17.2531 21.9166 11.5C21.9166 5.74689 17.253 1.08334 11.4999 1.08334Z" stroke="black" stroke-width="0.75" stroke-linecap="round" stroke-linejoin="round"/>
<path d="M3.44897 18.1104C3.44897 18.1104 5.77085 15.1458 11.5 15.1458C17.2292 15.1458 19.5521 18.1104 19.5521 18.1104M11.5 11.5C12.3288 11.5 13.1237 11.1708 13.7097 10.5847C14.2958 9.99866 14.625 9.2038 14.625 8.375C14.625 7.5462 14.2958 6.75134 13.7097 6.16529C13.1237 5.57924 12.3288 5.25 11.5 5.25C10.6712 5.25 9.87636 5.57924 9.29031 6.16529C8.70426 6.75134 8.37502 7.5462 8.37502 8.375C8.37502 9.2038 8.70426 9.99866 9.29031 10.5847C9.87636 11.1708 10.6712 11.5 11.5 11.5V11.5Z" stroke="black" stroke-width="0.75" stroke-linecap="round" stroke-linejoin="round"/>
</svg>
