<svg width="25" height="25" viewBox="0 0 25 25" fill="none" xmlns="http://www.w3.org/2000/svg">
<path d="M12.5 23.4375C10.3368 23.4375 8.22212 22.796 6.42346 21.5942C4.62479 20.3924 3.22291 18.6842 2.39507 16.6856C1.56724 14.687 1.35064 12.4879 1.77267 10.3662C2.19469 8.24454 3.23639 6.29566 4.76602 4.76602C6.29566 3.23639 8.24454 2.19469 10.3662 1.77267C12.4879 1.35064 14.687 1.56724 16.6856 2.39507C18.6842 3.22291 20.3924 4.62479 21.5942 6.42346C22.796 8.22212 23.4375 10.3368 23.4375 12.5C23.4375 15.4008 22.2852 18.1828 20.234 20.234C18.1828 22.2852 15.4008 23.4375 12.5 23.4375ZM12.5 3.12501C10.6458 3.12501 8.83325 3.67484 7.29153 4.70498C5.74982 5.73512 4.54821 7.19929 3.83863 8.91235C3.12906 10.6254 2.94341 12.5104 3.30514 14.329C3.66688 16.1475 4.55976 17.818 5.87088 19.1291C7.182 20.4402 8.85246 21.3331 10.671 21.6949C12.4896 22.0566 14.3746 21.8709 16.0877 21.1614C17.8007 20.4518 19.2649 19.2502 20.295 17.7085C21.3252 16.1668 21.875 14.3542 21.875 12.5C21.875 10.0136 20.8873 7.62903 19.1291 5.87088C17.371 4.11273 14.9864 3.12501 12.5 3.12501Z" fill="black"/>
<path d="M16.0859 17.1875L11.7188 12.8203V5.46875H13.2812V12.1719L17.1875 16.0859L16.0859 17.1875Z" fill="black"/>
</svg>
