<svg width="23" height="18" viewBox="0 0 23 18" fill="none" xmlns="http://www.w3.org/2000/svg">
<path fill-rule="evenodd" clip-rule="evenodd" d="M12.8182 2.23283C12.7615 2.08889 12.7643 1.92831 12.826 1.78644C12.8877 1.64456 13.0032 1.533 13.1471 1.4763L15.3181 0.621129C15.4621 0.564428 15.6226 0.56723 15.7645 0.628921C15.9064 0.690612 16.018 0.806136 16.0747 0.950081L16.5022 2.03557L18.1305 1.39419C18.2744 1.33749 18.435 1.34029 18.5769 1.40198C18.7187 1.46368 18.8303 1.5792 18.887 1.72315L20.1698 4.97961L21.798 4.33823L22.2256 5.42372L20.5973 6.0651L21.8801 9.32156C21.9368 9.4655 21.934 9.62608 21.8723 9.76796C21.8106 9.90983 21.6951 10.0214 21.5511 10.0781L19.9229 10.7195L20.3505 11.805C20.4072 11.9489 20.4044 12.1095 20.3427 12.2514C20.281 12.3932 20.1655 12.5048 20.0215 12.5615L17.8506 13.4167C17.7066 13.4734 17.546 13.4706 17.4042 13.4089C17.2623 13.3472 17.1507 13.2317 17.094 13.0877L15.1699 8.20301L7.57149 11.1961L9.49561 16.0808C9.55231 16.2247 9.54951 16.3853 9.48782 16.5272C9.42613 16.6691 9.31061 16.7806 9.16666 16.8373L6.99569 17.6925C6.85174 17.7492 6.69117 17.7464 6.54929 17.6847C6.40741 17.623 6.29585 17.5075 6.23915 17.3635L5.81157 16.2781L4.18334 16.9194C4.03939 16.9761 3.87882 16.9733 3.73694 16.9116C3.59506 16.8499 3.4835 16.7344 3.4268 16.5905L2.14405 13.334L0.515818 13.9754L0.0882342 12.8899L1.71647 12.2485L0.433716 8.99206C0.377015 8.84812 0.379818 8.68755 0.441508 8.54567C0.503199 8.40379 0.618723 8.29223 0.762668 8.23553L2.3909 7.59415L1.96332 6.50867C1.90662 6.36472 1.90942 6.20415 1.97111 6.06227C2.0328 5.92039 2.14832 5.80883 2.29227 5.75213L4.46324 4.89696C4.60719 4.84026 4.76776 4.84306 4.90964 4.90476C5.05152 4.96645 5.16308 5.08197 5.21978 5.22591L7.1439 10.1106L14.7423 7.11753L12.8182 2.23283ZM7.11085 16.3932L8.19633 15.9656L4.34808 6.19624L3.2626 6.62383L7.11085 16.3932ZM2.81848 8.67964L1.733 9.10722L4.2985 15.6201L5.38398 15.1926L2.81848 8.67964ZM19.4953 9.63398L16.9298 3.12106L18.0153 2.69347L20.5808 9.2064L19.4953 9.63398ZM15.203 1.92041L19.0512 11.6898L17.9657 12.1174L14.1175 2.34799L15.203 1.92041Z" fill="black"/>
</svg>
